:SAMPLES-PER-SECOND 30
:FRAME-RANGE 1-2643
:FULLY-SPECIFIED
:DEGREES
1405
root  29.741 31.7123 18.4649 -167.795 67.4818 -172.402
RightUpLeg  -1.00409 -2.60726 -29.3387
RightLeg  47.0751 -0.516815 -0.919472
RightFoot  -14.7528 1.54668 51.7261
RightToes  7.56698e-010 0 -3.6325e-017
Spine  32.659 2.88552 6.66038
Spine1  -8.61848 3.67092 -0.196953
HEad  -14.8048 -20.3377 1.0368
LeftShoulder1  1.53821 -2.00725 -21.5428
LeftArm  -26.2057 -30.407 -11.5675
LeftForeArm  21.3506 -48.4379 -11.0635
LeftHand  -0.0475216 -0.0433805 1.02971
RightShoulder  11.879 25.3507 34.9669
RightArm  -20.5423 20.7194 5.21557
RightForeArm  27.352 54.8457 13.7019
RightHand  -0.570373 2.78228 -8.31403
LeftUpLeg  -55.2044 23.157 5.00237
LeftLeg  68.4795 1.7274 5.65841
LeftFoot  -15.8777 -0.193906 -7.28763
LeftToes  1.48244e-010 1.61973e-010 3.308e-011
1406
root  31.1267 32.27 17.0914 -167.622 63.0953 -171.676
RightUpLeg  -1.27109 1.83303 -25.6553
RightLeg  52.5498 -3.84668 -5.75608
RightFoot  -0.0738698 -3.12852 30.9842
RightToes  7.56698e-010 0 -3.6325e-017
Spine  30.7954 2.97491 5.75127
Spine1  -7.90287 3.48893 1.41768
HEad  -13.2191 -24.0491 5.38334
LeftShoulder1  1.58482 -2.48883 -19.9823
LeftArm  -15.3967 -35.8896 -17.6358
LeftForeArm  25.686 -54.741 -13.787
LeftHand  0.0325148 -0.542701 -0.582831
RightShoulder  11.9111 23.831 37.3613
RightArm  -19.5938 19.037 4.63522
RightForeArm  26.2434 53.4703 13.0468
RightHand  -0.517971 2.8863 -7.48399
LeftUpLeg  -51.5864 21.572 5.18517
LeftLeg  68.3347 0.923037 3.3771
LeftFoot  -19.3273 -0.316962 -6.195
LeftToes  1.48244e-010 1.61973e-010 3.308e-011
1407
root  32.2936 32.78 15.9054 -168.685 59.7858 -172.884
RightUpLeg  -4.99181 -1.47536 -24.1597
RightLeg  60.0848 -1.30838 -2.96486
RightFoot  2.28813 -2.42564 20.2349
RightToes  7.56698e-010 0 -3.6325e-017
Spine  29.8127 2.71579 4.17685
Spine1  -7.29093 2.86555 2.14773
HEad  -12.8249 -25.8528 7.83522
LeftShoulder1  1.60892 -2.86904 -18.6955
LeftArm  -5.57432 -36.8964 -22.4951
LeftForeArm  38.0497 -61.6094 -17.2643
LeftHand  0.211695 -2.65815 -2.85251
RightShoulder  11.7338 22.7647 38.4451
RightArm  -20.0681 17.0255 5.26723
RightForeArm  25.8244 54.3944 13.5854
RightHand  -0.484296 2.80833 -7.07404
LeftUpLeg  -48.41 20.5466 4.40389
LeftLeg  67.4332 0.280533 1.51617
LeftFoot  -21.7919 -0.3372 -5.11353
LeftToes  1.48244e-010 1.61973e-010 3.308e-011
1408
root  33.3136 33.3704 14.7302 -169.376 57.9515 -173.757
RightUpLeg  -11.3132 -8.59838 -23.0371
RightLeg  67.8374 -0.590013 -2.3245
RightFoot  0.145266 -2.05448 20.2409
RightToes  7.56698e-010 0 -3.6325e-017
Spine  29.484 2.01753 3.94523
Spine1  -6.1548 2.35054 1.649
HEad  -13.8986 -25.5766 8.5404
LeftShoulder1  1.57592 -2.7887 -18.477
LeftArm  -1.91307 -33.0465 -24.5568
LeftForeArm  58.1196 -69.1627 -23.0934
LeftHand  0.201296 -3.21384 -2.48506
RightShoulder  11.3024 21.4447 39.0857
RightArm  -22.4144 15.1104 4.75532
RightForeArm  27.7334 57.6423 15.3892
RightHand  -0.482161 2.49706 -7.29929
LeftUpLeg  -45.0325 20.0284 3.74532
LeftLeg  66.0382 0.0506656 0.853822
LeftFoot  -22.9474 -0.360069 -4.89529
LeftToes  1.48244e-010 1.61973e-010 3.308e-011
1409
root  34.3169 33.875 13.5179 -170.283 57.6217 -174.833
RightUpLeg  -20.1205 -14.0087 -19.9305
RightLeg  73.9763 -1.64337 -7.5991
RightFoot  -3.52551 -1.37319 19.5692
RightToes  7.56698e-010 0 -3.6325e-017
Spine  29.3884 1.63318 3.95851
Spine1  -5.05567 2.21047 1.25999
HEad  -14.5694 -23.9698 7.96122
LeftShoulder1  1.52867 -2.25656 -20.0788
LeftArm  -6.35689 -26.492 -22.5528
LeftForeArm  65.3498 -75.6032 -37.1712
LeftHand  0.23406 -1.74627 -3.66764
RightShoulder  10.2554 19.3837 38.6546
RightArm  -25.0858 13.7169 3.68526
RightForeArm  30.5969 61.7175 18.2082
RightHand  -0.506923 1.95116 -8.19088
LeftUpLeg  -42.6134 19.5789 3.45831
LeftLeg  66.8353 -0.15181 0.365218
LeftFoot  -21.4874 -0.578145 -7.9529
LeftToes  1.48244e-010 1.61973e-010 3.308e-011
1410
root  35.2949 34.2566 12.2403 -171.759 58.0796 -175.764
RightUpLeg  -29.2749 -17.4698 -15.3434
RightLeg  75.7944 -2.27756 -11.6026
RightFoot  -6.90924 -0.715766 17.1543
RightToes  7.56698e-010 0 -3.6325e-017
Spine  30.2857 1.12043 5.011
Spine1  -4.94318 2.19516 0.912213
HEad  -13.9829 -22.4392 7.44597
LeftShoulder1  1.38985 -1.40309 -21.9764
LeftArm  -16.0726 -20.9856 -19.2621
LeftForeArm  64.4033 -77.8611 -50.9357
LeftHand  0.191896 0.678795 -4.8746
RightShoulder  8.95377 17.1822 37.2238
RightArm  -27.0857 12.8055 2.1978
RightForeArm  32.172 65.1439 21.4834
RightHand  -0.465445 1.4805 -8.01432
LeftUpLeg  -42.1397 19.6766 3.76417
LeftLeg  71.0907 -0.316729 -0.112509
LeftFoot  -13.899 -0.243788 -14.5685
LeftToes  1.48244e-010 1.61973e-010 3.308e-011
1411
root  36.2169 34.3433 11.0386 -173.573 58.4861 -176.594
RightUpLeg  -37.8209 -18.2328 -9.87111
RightLeg  73.071 -3.39711 -13.4795
RightFoot  -8.45427 -0.463803 16.0131
RightToes  7.56698e-010 0 -3.6325e-017
Spine  31.129 0.680976 6.38184
Spine1  -4.58724 2.11867 0.669737
HEad  -12.8562 -21.5702 6.95489
LeftShoulder1  1.36733 -1.2284 -22.5784
LeftArm  -22.2872 -19.9848 -19.3178
LeftForeArm  59.8741 -77.6869 -51.7834
LeftHand  0.0181455 3.08968 -1.8342
RightShoulder  7.79784 15.9591 34.0839
RightArm  -30.2918 12.3467 1.12659
RightForeArm  32.0164 66.5175 23.226
RightHand  -0.567239 0.630548 -11.0285
LeftUpLeg  -43.6878 20.1933 4.93468
LeftLeg  76.7819 -0.821788 -2.76991
LeftFoot  0.857053 1.87546 -17.4853
LeftToes  1.48244e-010 1.61973e-010 3.308e-011
1412
root  37.0657 33.9325 9.88338 -174.128 58.3265 -175.774
RightUpLeg  -44.3282 -16.4023 -4.38658
RightLeg  65.2118 -3.33826 -8.52469
RightFoot  -6.84877 -0.729532 17.2802
RightToes  7.56698e-010 0 -3.6325e-017
Spine  31.9592 -0.0856757 8.22757
Spine1  -4.54081 1.5765 0.956273
HEad  -11.0865 -20.3065 5.77886
LeftShoulder1  1.49522 -1.70298 -22.395
LeftArm  -18.9224 -22.6587 -22.2978
LeftForeArm  68.2262 -78.6472 -57.4196
LeftHand  0.0212262 2.56704 -1.48968
RightShoulder  7.46492 16.6703 31.0033
RightArm  -35.182 13.7574 0.105537
RightForeArm  31.2728 66.0998 22.7837
RightHand  -0.457475 0.862897 -8.60435
LeftUpLeg  -45.365 19.588 8.04618
LeftLeg  82.3979 -1.11071 -8.56525
LeftFoot  10.5105 3.04323 -16.0123
LeftToes  1.48244e-010 1.61973e-010 3.308e-011
1413
root  37.9211 33.4105 8.82459 -174.945 56.8846 -174.452
RightUpLeg  -46.5482 -13.7304 -0.125113
RightLeg  52.9131 -3.27054 -5.05263
RightFoot  -5.23475 -0.212779 3.31967
RightToes  7.56698e-010 0 -3.6325e-017
Spine  33.0825 -0.782722 8.78116
Spine1  -3.85621 0.390772 3.1898
HEad  -11.3496 -18.2811 5.08684
LeftShoulder1  1.70095 -2.63296 -21.3413
LeftArm  -7.01774 -28.115 -28.8683
LeftForeArm  77.9217 -79.4642 -63.0446
LeftHand  0.237673 0.03682 -5.20228
RightShoulder  7.62745 18.6362 28.3665
RightArm  -40.9036 16.7559 -1.09562
RightForeArm  31.0552 65.4523 22.0036
RightHand  -0.550214 0.242835 -11.4022
LeftUpLeg  -46.3507 17.7384 12.3592
LeftLeg  84.2094 -0.475637 -3.2543
LeftFoot  9.82512 2.01303 -11.0698
LeftToes  1.48244e-010 1.61973e-010 3.308e-011
1414
root  39.0727 32.7922 7.8044 -178.904 54.1622 -175.953
RightUpLeg  -45.8611 -8.95039 -4.19982
RightLeg  55.3844 -4.3946 -7.26545
RightFoot  -3.80418 -0.263326 3.6023
RightToes  7.56698e-010 0 -3.6325e-017
Spine  34.4927 -0.939516 6.6284
Spine1  -3.30829 -0.768244 6.07274
HEad  -11.2718 -16.7934 4.90678
LeftShoulder1  1.99482 -4.22741 -19.3013
LeftArm  8.20424 -34.5383 -39.3799
LeftForeArm  62.0017 -76.1197 -40.4774
LeftHand  0.418749 -2.68918 -5.81685
RightShoulder  8.03588 21.1784 26.3587
RightArm  -45.8504 18.8843 -2.18935
RightForeArm  33.6928 65.5043 21.7027
RightHand  -0.607279 0.578443 -11.8958
LeftUpLeg  -46.3914 16.3685 15.5753
LeftLeg  81.2333 -0.190968 0.576503
LeftFoot  5.88318 1.18359 -8.04276
LeftToes  1.48244e-010 1.61973e-010 3.308e-011
1415
root  40.1793 32.0664 6.82445 177.965 50.821 -176.502
RightUpLeg  -42.8688 -9.57401 -7.21731
RightLeg  62.5213 -3.81097 -8.49929
RightFoot  -10.2783 -0.154716 9.11553
RightToes  7.56698e-010 0 -3.6325e-017
Spine  35.3349 -1.95974 5.78005
Spine1  -2.37817 -1.70285 5.47124
HEad  -11.9968 -16.1704 4.46883
LeftShoulder1  2.12667 -5.1311 -18.0394
LeftArm  18.6092 -38.7264 -48.4879
LeftForeArm  56.0146 -68.6222 -22.6075
LeftHand  0.224043 -3.55796 -2.65965
RightShoulder  8.46513 23.2236 25.3902
RightArm  -49.1065 21.5097 -3.04177
RightForeArm  35.5 65.6464 21.6245
RightHand  -0.664575 0.932511 -12.3057
LeftUpLeg  -46.5678 15.5037 18.1626
LeftLeg  74.0833 -0.562699 -1.18745
LeftFoot  2.78459 0.940805 -7.72265
LeftToes  1.48244e-010 1.61973e-010 3.308e-011
